<mxfile host="app.diagrams.net" modified="2023-07-01T07:12:53.913Z" agent="Mozilla/5.0 (Windows NT 10.0; Win64; x64) AppleWebKit/537.36 (KHTML, like Gecko) Chrome/114.0.0.0 Safari/537.36" version="21.5.2" etag="Ik5gilQUwTSQI4Uqmsvv" type="github">
  <diagram name="Page-1" id="mnIJfY60bvJNDvsKuQh9">
    <mxGraphModel>
      <root>
        <mxCell id="0" />
        <mxCell id="1" parent="0" />
      </root>
    </mxGraphModel>
  </diagram>
</mxfile>
